<svg xmlns="http://www.w3.org/2000/svg" viewBox="0 0 1920 1080"><g id="Laag_135" data-name="Laag 135"><path d="M1032.85,557.5s121,14,121,111c-5,85-111,74-151,60-81-26-243-161-243-161" style="fill:none;stroke:#2565b3;stroke-miterlimit:10;stroke-width:5.5px"/></g><g id="Laag_118" data-name="Laag 118"><rect x="705.43" y="326.93" width="25" height="23.96" rx="11.98" style="fill:#f04038"/></g><g id="Laag_117" data-name="Laag 117"><rect x="758.43" y="337.93" width="25" height="23.96" rx="11.98" style="fill:#f04038"/></g><g id="Laag_116" data-name="Laag 116"><rect x="758.43" y="292.93" width="25" height="23.96" rx="11.98" style="fill:#f04038"/></g><g id="Laag_115" data-name="Laag 115"><rect x="920.43" y="292.93" width="25" height="23.96" rx="11.98" style="fill:#f04038"/></g><g id="Laag_114" data-name="Laag 114"><rect x="1143.43" y="330.93" width="25" height="23.96" rx="11.98" style="fill:#f04038"/></g><g id="Laag_113" data-name="Laag 113"><rect x="1148.43" y="510.93" width="25" height="23.96" rx="11.98" style="fill:#f04038"/></g><g id="Laag_112" data-name="Laag 112"><rect x="1105.43" y="537.93" width="25" height="23.96" rx="11.98" style="fill:#f04038"/></g><g id="Laag_111" data-name="Laag 111"><rect x="1002.43" y="543.93" width="25" height="23.96" rx="11.98" style="fill:#f04038"/></g><g id="Laag_110" data-name="Laag 110"><rect x="732.43" y="545.93" width="25" height="23.96" rx="11.98" style="fill:#f04038"/></g><g id="Laag_109" data-name="Laag 109"><rect x="744.43" y="769.93" width="25" height="23.96" rx="11.98" style="fill:#f04038"/></g><g id="Laag_108" data-name="Laag 108"><rect x="1082.43" y="763.93" width="25" height="23.96" rx="11.98" style="fill:#f04038"/></g><g id="Laag_107" data-name="Laag 107"><rect x="984.43" y="761.93" width="25" height="23.96" rx="11.98" style="fill:#f04038"/></g><g id="Laag_106" data-name="Laag 106"><rect x="1173.43" y="830.93" width="25" height="23.96" rx="11.98" style="fill:#f04038"/></g><g id="Laag_105" data-name="Laag 105"><rect x="1098.43" y="862.93" width="25" height="23.96" rx="11.98" style="fill:#f04038"/></g><g id="Laag_104" data-name="Laag 104"><rect x="738.43" y="811.93" width="25" height="23.96" rx="11.98" style="fill:#f04038"/></g><g id="Laag_103" data-name="Laag 103"><rect x="736.43" y="868.93" width="25" height="23.96" rx="11.98" style="fill:#f04038"/></g><g id="Laag_102" data-name="Laag 102"><rect x="699.43" y="765.93" width="25" height="23.96" rx="11.98" style="fill:#f04038"/></g><g id="Laag_101" data-name="Laag 101"><rect x="696.43" y="563.93" width="25" height="23.96" rx="11.98" style="fill:#f04038"/></g><g id="Laag_100" data-name="Laag 100"><rect x="990.43" y="456.93" width="25" height="23.96" rx="11.98" style="fill:#f04038"/></g><g id="Laag_99" data-name="Laag 99"><rect x="1093.43" y="336.93" width="25" height="23.96" rx="11.98" style="fill:#f04038"/></g><g id="Laag_98" data-name="Laag 98"><rect x="1188.43" y="262.93" width="25" height="23.96" rx="11.98" style="fill:#f04038"/></g><g id="Laag_97" data-name="Laag 97"><rect x="855.43" y="360.93" width="25" height="23.96" rx="11.98" style="fill:#f04038"/></g><g id="Laag_96" data-name="Laag 96"><rect x="900.43" y="364.93" width="25" height="23.96" rx="11.98" style="fill:#f04038"/></g><g id="Laag_95" data-name="Laag 95"><rect x="947.43" y="382.93" width="25" height="23.96" rx="11.98" style="fill:#f04038"/></g><g id="Laag_94" data-name="Laag 94"><rect x="755.43" y="236.93" width="25" height="23.96" rx="11.98" style="fill:#f04038"/></g><g id="Laag_93" data-name="Laag 93"><rect x="880.43" y="86.93" width="25" height="23.96" rx="11.98" style="fill:#f04038"/></g><g id="Laag_92" data-name="Laag 92"><rect x="1098.75" y="863.18" width="25" height="23.96" rx="11.07" style="fill:#f04038"/></g><g id="Laag_91" data-name="Laag 91"><path d="M908.58,107.6a8.51,8.51,0,0,1-1.78,2.21l26.45,15L1159,252.68l26.45,15a8.77,8.77,0,0,1,1-2.66,8.51,8.51,0,0,1,1.78-2.21l-26.45-15L936,119.93l-26.45-15A8.68,8.68,0,0,1,908.58,107.6Z" style="fill:#2565b3"/></g><g id="Laag_90" data-name="Laag 90"><path d="M896.23,115.36a10.79,10.79,0,0,1-2.82-.17l1.52,23.35,12.93,199.24,1.52,23.35a11.25,11.25,0,0,1,2.77-.54,10.73,10.73,0,0,1,2.81.18l-1.51-23.35L900.51,138.18,899,114.83A10.89,10.89,0,0,1,896.23,115.36Z" style="fill:#2565b3"/></g><g id="Laag_89" data-name="Laag 89"><path d="M785.92,250.17a7.2,7.2,0,0,1-.75,2.76l37.88,2.37,323.24,20.22,37.88,2.37a6.78,6.78,0,0,1-.4-2.82,7,7,0,0,1,.75-2.76l-37.89-2.37L823.4,249.72l-37.88-2.37A7.13,7.13,0,0,1,785.92,250.17Z" style="fill:#2565b3"/></g><g id="Laag_88" data-name="Laag 88"><path d="M766.82,876.85a8.22,8.22,0,0,1-.45,2.8l31-.23,264.9-1.94,31-.23a8.55,8.55,0,0,1,0-5.59l-31,.22-264.9,2-31,.22A8.23,8.23,0,0,1,766.82,876.85Z" style="fill:#2565b3"/></g><g id="Laag_87" data-name="Laag 87"><path d="M722.35,585s148,137,258,182" style="fill:none;stroke:#2565b3;stroke-miterlimit:10;stroke-width:5.5px"/></g><g id="Laag_86" data-name="Laag 86"><path d="M769.34,822.92a7.09,7.09,0,0,1-.71,2.77l38,1.71L1131,842l38,1.71a7,7,0,0,1,.26-5.59l-38-1.71L806.9,821.81l-38-1.71A7.15,7.15,0,0,1,769.34,822.92Z" style="fill:#2565b3"/></g><g id="Laag_85" data-name="Laag 85"><path d="M718.35,356s1,209,162,225c118,7,120-96,120-96" style="fill:none;stroke:#2565b3;stroke-miterlimit:10;stroke-width:5.5px"/></g><g id="Laag_84" data-name="Laag 84"><path d="M771.35,367s-2,160,113,166c106,7,76-120,76-120" style="fill:none;stroke:#2565b3;stroke-miterlimit:10;stroke-width:5.5px"/></g><g id="Laag_83" data-name="Laag 83"><path d="M1156.77,360.17a18,18,0,0,1-2.8-.13l.42,14,3.52,119.13.42,14a18.29,18.29,0,0,1,5.59-.17l-.41-14L1160,373.84l-.41-14A17.16,17.16,0,0,1,1156.77,360.17Z" style="fill:#2565b3"/></g><g id="Laag_82" data-name="Laag 82"><path d="M1106.61,364.87a16.18,16.18,0,0,1-2.81-.07l1,16,8.81,136.45,1,16a15.71,15.71,0,0,1,5.58-.36l-1-16-8.82-136.45-1-16A16.37,16.37,0,0,1,1106.61,364.87Z" style="fill:#2565b3"/></g><g id="Laag_81" data-name="Laag 81"><path d="M709.7,592.64a16.51,16.51,0,0,1-2.8-.21l.2,16,1.66,136.73.2,16a16.07,16.07,0,0,1,2.79-.28,16.43,16.43,0,0,1,2.8.21l-.19-16-1.67-136.73-.19-16A15.26,15.26,0,0,1,709.7,592.64Z" style="fill:#2565b3"/></g><g id="Laag_80" data-name="Laag 80"><path d="M750.3,840c-1,0-1.94,0-2.8-.09l0,2.36L747,862.46l0,2.36c.85,0,1.8,0,2.79,0s1.94,0,2.8.1l.05-2.37.46-20.15.06-2.37C752.24,840.07,751.29,840.06,750.3,840Z" style="fill:#2565b3"/></g><g id="Laag_79" data-name="Laag 79"><path d="M1015.42,572.27a14.28,14.28,0,0,1-2.77-.47l-1.33,17.63L1000,739.89l-1.33,17.63a15.14,15.14,0,0,1,5.58.42l1.33-17.63,11.32-150.46,1.33-17.63A14.48,14.48,0,0,1,1015.42,572.27Z" style="fill:#2565b3"/></g><g id="Laag_78" data-name="Laag 78"><path d="M747.49,574.27a15,15,0,0,1-2.81-.14l.85,18,7.25,153.93.85,18a14.38,14.38,0,0,1,5.59-.27l-.85-18L751.12,591.9l-.85-18A13.76,13.76,0,0,1,747.49,574.27Z" style="fill:#2565b3"/></g><g id="Laag_77" data-name="Laag 77"><path d="M974.8,404.11a13.06,13.06,0,0,1-1.78,2.17l16.14,10.65,137.78,90.86,16.15,10.65a13.21,13.21,0,0,1,3.08-4.67L1130,503.12,992.25,412.26,976.1,401.61A13.3,13.3,0,0,1,974.8,404.11Z" style="fill:#2565b3"/></g><g id="Laag_76" data-name="Laag 76"><path d="M1018.56,477a24.17,24.17,0,0,1-1.79,2.16l8.17,6,69.65,51.37,8.17,6a25.76,25.76,0,0,1,1.53-2.34,24.17,24.17,0,0,1,1.79-2.16l-8.17-6-69.65-51.36-8.17-6A24.44,24.44,0,0,1,1018.56,477Z" style="fill:#2565b3"/></g><g id="Laag_75" data-name="Laag 75"><path d="M1098.14,793c-1,.18-1.92.32-2.77.42l1.17,6.23,9.93,53.12,1.17,6.23c.83-.22,1.75-.43,2.73-.61s1.92-.33,2.77-.42l-1.16-6.23L1102,798.57l-1.17-6.23C1100,792.56,1099.12,792.77,1098.14,793Z" style="fill:#2565b3"/></g><g id="Laag_74" data-name="Laag 74"><path d="M1108.89,784.53c-.59.8-1.18,1.54-1.75,2.19l6.13,4.51,52.27,38.54,6.12,4.52c.45-.73,1-1.52,1.57-2.32s1.18-1.54,1.75-2.18l-6.12-4.52-52.27-38.54-6.13-4.52C1110,782.94,1109.49,783.73,1108.89,784.53Z" style="fill:#2565b3"/></g><g id="Laag_72" data-name="Laag 72"><path d="M788.26,303.82a20.51,20.51,0,0,1-.16,2.8l12.08-.09,103.1-.76,12.08-.08a21.87,21.87,0,0,1,0-5.6l-12.08.09-103.1.75-12.08.09A20.26,20.26,0,0,1,788.26,303.82Z" style="fill:#2565b3"/></g><g id="Laag_62" data-name="Laag 62"><path d="M879.72,359.85c.73.68,1.41,1.34,2,1.95l3.77-4.13,32.15-35.28,3.77-4.14c-.67-.54-1.39-1.15-2.12-1.82s-1.42-1.33-2-1.95l-3.77,4.14L881.36,353.9,877.59,358C878.26,358.57,879,359.18,879.72,359.85Z" style="fill:#2565b3"/></g><g id="Laag_57" data-name="Laag 57"><path d="M884.3,373.71c0,1,0,1.94,0,2.79h1.15l9.77,0h1.14c0-.86,0-1.8,0-2.8s0-1.94,0-2.8h-1.15l-9.77,0h-1.14C884.29,371.77,884.3,372.71,884.3,373.71Z" style="fill:#2565b3"/></g><g id="Laag_56" data-name="Laag 56"><path d="M736,342.89c-.22,1-.44,1.89-.65,2.72L737,346l13.91,3.22,1.63.37c.17-.84.38-1.76.6-2.73s.45-1.89.66-2.72l-1.63-.38-13.91-3.21-1.63-.38C736.41,341,736.21,341.92,736,342.89Z" style="fill:#2565b3"/></g><g id="Laag_55" data-name="Laag 55"><path d="M1122.2,344.54c0,1,0,1.94,0,2.8h1.44l12.29,0h1.44c0-.86,0-1.8,0-2.8s0-1.94,0-2.8h-1.44l-12.29,0h-1.44C1122.19,342.6,1122.2,343.55,1122.2,344.54Z" style="fill:#2565b3"/></g><g id="Laag_54" data-name="Laag 54"><path d="M768.07,266c-1,0-1.94,0-2.8,0l0,2.08.15,17.83,0,2.08,2.79,0c1,0,2,0,2.8,0v-2.09l-.16-17.82V266C770,266,769.06,266,768.07,266Z" style="fill:#2565b3"/></g><g id="Laag_53" data-name="Laag 53"><rect x="1173.74" y="831.01" width="25" height="23.96" rx="11.07" style="fill:#f04038"/></g></svg>